# xmcd
#
# Track frame offsets:
#	150
#	1354
#	17064
#	23931
#	45526
#	64841
#	83857
#	88845
#	105171
#	115008
#	132351
#	143012
#	161238
#	177411
#
# Disc length: 2700 seconds
#
# Revision: 0
# Processed by: cddbd v1.5.2PL0 Copyright (c) Steve Scherf et al.
# Submitted via: EasyCDDAExtractor 15.0.0.1
#
DISCID=b00a8a0e
DTITLE=Young Dro - I Co-Sign Myself
DYEAR=2011
DGENRE=Hip-Hop
TTITLE0=Dro Speaks (Intro)
TTITLE1=What I Do 
TTITLE2=Popular
TTITLE3=Young (Feat. Jose Guapo)
TTITLE4=Your Nothing (Feat. Jose Guapo)
TTITLE5=Dat Loud
TTITLE6=Smoke Break
TTITLE7=Polo Down
TTITLE8=Cold Blooded
TTITLE9=Super Dupper
TTITLE10=All White
TTITLE11=Sum Bitch
TTITLE12=Last Time (Feat. Samiyyah Dixon)
TTITLE13=More
EXTD=
EXTT0=
EXTT1=
EXTT2=
EXTT3=
EXTT4=
EXTT5=
EXTT6=
EXTT7=
EXTT8=
EXTT9=
EXTT10=
EXTT11=
EXTT12=
EXTT13=
PLAYORDER=
